<mxfile host="app.diagrams.net" agent="Mozilla/5.0 (Windows NT 10.0; Win64; x64) AppleWebKit/537.36 (KHTML, like Gecko) Chrome/132.0.0.0 Safari/537.36" version="26.0.9">
  <diagram name="第 1 页" id="IhL6aPUcPZnnMDHSf5L_">
    <mxGraphModel dx="880" dy="468" grid="0" gridSize="10" guides="1" tooltips="1" connect="1" arrows="1" fold="1" page="1" pageScale="1" pageWidth="827" pageHeight="1169" math="0" shadow="0">
      <root>
        <mxCell id="0" />
        <mxCell id="1" parent="0" />
        <mxCell id="5rekBt8bQFxeiz0OV4fJ-1" value="用户实体" style="rounded=0;whiteSpace=wrap;html=1;" vertex="1" parent="1">
          <mxGeometry x="303" y="220" width="106" height="48" as="geometry" />
        </mxCell>
        <mxCell id="5rekBt8bQFxeiz0OV4fJ-3" style="rounded=0;orthogonalLoop=1;jettySize=auto;html=1;entryX=0.5;entryY=0;entryDx=0;entryDy=0;endArrow=none;startFill=0;" edge="1" parent="1" target="5rekBt8bQFxeiz0OV4fJ-1">
          <mxGeometry relative="1" as="geometry">
            <mxPoint x="185.47087928785368" y="165.48966684407708" as="sourcePoint" />
            <mxPoint x="340.99" y="221.024" as="targetPoint" />
          </mxGeometry>
        </mxCell>
        <mxCell id="5rekBt8bQFxeiz0OV4fJ-2" value="主键id" style="ellipse;whiteSpace=wrap;html=1;" vertex="1" parent="1">
          <mxGeometry x="116" y="136" width="77" height="37" as="geometry" />
        </mxCell>
        <mxCell id="5rekBt8bQFxeiz0OV4fJ-4" value="手机号" style="ellipse;whiteSpace=wrap;html=1;" vertex="1" parent="1">
          <mxGeometry x="450" y="88" width="77" height="37" as="geometry" />
        </mxCell>
        <mxCell id="5rekBt8bQFxeiz0OV4fJ-6" value="密&lt;span style=&quot;color: rgba(0, 0, 0, 0); font-family: monospace; font-size: 0px; text-align: start; text-wrap-mode: nowrap;&quot;&gt;%3CmxGraphModel%3E%3Croot%3E%3CmxCell%20id%3D%220%22%2F%3E%3CmxCell%20id%3D%221%22%20parent%3D%220%22%2F%3E%3CmxCell%20id%3D%222%22%20value%3D%22%E7%94%A8%E6%88%B7%E5%90%8D%22%20style%3D%22ellipse%3BwhiteSpace%3Dwrap%3Bhtml%3D1%3B%22%20vertex%3D%221%22%20parent%3D%221%22%3E%3CmxGeometry%20x%3D%22286%22%20y%3D%22103%22%20width%3D%2277%22%20height%3D%2237%22%20as%3D%22geometry%22%2F%3E%3C%2FmxCell%3E%3C%2Froot%3E%3C%2FmxGraphModel%3E&lt;/span&gt;码&lt;span style=&quot;color: rgba(0, 0, 0, 0); font-family: monospace; font-size: 0px; text-align: start; text-wrap-mode: nowrap;&quot;&gt;%3CmxGraphModel%3E%3Croot%3E%3CmxCell%20id%3D%220%22%2F%3E%3CmxCell%20id%3D%221%22%20parent%3D%220%22%2F%3E%3CmxCell%20id%3D%222%22%20value%3D%22%E7%94%A8%E6%88%B7%E5%90%8D%22%20style%3D%22ellipse%3BwhiteSpace%3Dwrap%3Bhtml%3D1%3B%22%20vertex%3D%221%22%20parent%3D%221%22%3E%3CmxGeometry%20x%3D%22286%22%20y%3D%22103%22%20width%3D%2277%22%20height%3D%2237%22%20as%3D%22geometry%22%2F%3E%3C%2FmxCell%3E%3C%2Froot%3E%3C%2FmxGraphModel%3E&lt;/span&gt;&lt;span style=&quot;color: rgba(0, 0, 0, 0); font-family: monospace; font-size: 0px; text-align: start; text-wrap-mode: nowrap;&quot;&gt;%3CmxGraphModel%3E%3Croot%3E%3CmxCell%20id%3D%220%22%2F%3E%3CmxCell%20id%3D%221%22%20parent%3D%220%22%2F%3E%3CmxCell%20id%3D%222%22%20value%3D%22%E7%94%A8%E6%88%B7%E5%90%8D%22%20style%3D%22ellipse%3BwhiteSpace%3Dwrap%3Bhtml%3D1%3B%22%20vertex%3D%221%22%20parent%3D%221%22%3E%3CmxGeometry%20x%3D%22286%22%20y%3D%22103%22%20width%3D%2277%22%20height%3D%2237%22%20as%3D%22geometry%22%2F%3E%3C%2FmxCell%3E%3C%2Froot%3E%3C%2FmxGraphModel%3E&lt;/span&gt;" style="ellipse;whiteSpace=wrap;html=1;" vertex="1" parent="1">
          <mxGeometry x="334" y="62" width="77" height="37" as="geometry" />
        </mxCell>
        <mxCell id="5rekBt8bQFxeiz0OV4fJ-7" value="身份证号" style="ellipse;whiteSpace=wrap;html=1;" vertex="1" parent="1">
          <mxGeometry x="527" y="127" width="77" height="37" as="geometry" />
        </mxCell>
        <mxCell id="5rekBt8bQFxeiz0OV4fJ-8" value="性别" style="ellipse;whiteSpace=wrap;html=1;" vertex="1" parent="1">
          <mxGeometry x="530" y="229" width="77" height="37" as="geometry" />
        </mxCell>
        <mxCell id="5rekBt8bQFxeiz0OV4fJ-9" value="邮箱" style="ellipse;whiteSpace=wrap;html=1;" vertex="1" parent="1">
          <mxGeometry x="164" y="311" width="77" height="37" as="geometry" />
        </mxCell>
        <mxCell id="5rekBt8bQFxeiz0OV4fJ-10" value="头像" style="ellipse;whiteSpace=wrap;html=1;" vertex="1" parent="1">
          <mxGeometry x="432" y="315" width="77" height="37" as="geometry" />
        </mxCell>
        <mxCell id="5rekBt8bQFxeiz0OV4fJ-11" value="余额" style="ellipse;whiteSpace=wrap;html=1;" vertex="1" parent="1">
          <mxGeometry x="295" y="325" width="77" height="37" as="geometry" />
        </mxCell>
        <mxCell id="5rekBt8bQFxeiz0OV4fJ-12" value="创建时间" style="ellipse;whiteSpace=wrap;html=1;" vertex="1" parent="1">
          <mxGeometry x="96" y="229" width="77" height="37" as="geometry" />
        </mxCell>
        <mxCell id="5rekBt8bQFxeiz0OV4fJ-13" style="rounded=0;orthogonalLoop=1;jettySize=auto;html=1;endArrow=none;startFill=0;exitX=0.5;exitY=1;exitDx=0;exitDy=0;entryX=0.5;entryY=0;entryDx=0;entryDy=0;" edge="1" parent="1" source="5rekBt8bQFxeiz0OV4fJ-5" target="5rekBt8bQFxeiz0OV4fJ-1">
          <mxGeometry relative="1" as="geometry">
            <mxPoint x="328.5" y="116" as="sourcePoint" />
            <mxPoint x="334" y="218" as="targetPoint" />
          </mxGeometry>
        </mxCell>
        <mxCell id="5rekBt8bQFxeiz0OV4fJ-14" style="rounded=0;orthogonalLoop=1;jettySize=auto;html=1;entryX=0.5;entryY=0;entryDx=0;entryDy=0;endArrow=none;startFill=0;exitX=0.5;exitY=1;exitDx=0;exitDy=0;" edge="1" parent="1" source="5rekBt8bQFxeiz0OV4fJ-6" target="5rekBt8bQFxeiz0OV4fJ-1">
          <mxGeometry relative="1" as="geometry">
            <mxPoint x="339" y="136" as="sourcePoint" />
            <mxPoint x="344" y="238" as="targetPoint" />
          </mxGeometry>
        </mxCell>
        <mxCell id="5rekBt8bQFxeiz0OV4fJ-5" value="用户名" style="ellipse;whiteSpace=wrap;html=1;" vertex="1" parent="1">
          <mxGeometry x="205" y="74" width="77" height="37" as="geometry" />
        </mxCell>
        <mxCell id="5rekBt8bQFxeiz0OV4fJ-16" style="rounded=0;orthogonalLoop=1;jettySize=auto;html=1;endArrow=none;startFill=0;exitX=0.5;exitY=1;exitDx=0;exitDy=0;entryX=0.5;entryY=0;entryDx=0;entryDy=0;" edge="1" parent="1" source="5rekBt8bQFxeiz0OV4fJ-4" target="5rekBt8bQFxeiz0OV4fJ-1">
          <mxGeometry relative="1" as="geometry">
            <mxPoint x="383" y="109" as="sourcePoint" />
            <mxPoint x="351" y="215" as="targetPoint" />
          </mxGeometry>
        </mxCell>
        <mxCell id="5rekBt8bQFxeiz0OV4fJ-17" style="rounded=0;orthogonalLoop=1;jettySize=auto;html=1;endArrow=none;startFill=0;exitX=0.5;exitY=1;exitDx=0;exitDy=0;entryX=0.5;entryY=0;entryDx=0;entryDy=0;" edge="1" parent="1" source="5rekBt8bQFxeiz0OV4fJ-7" target="5rekBt8bQFxeiz0OV4fJ-1">
          <mxGeometry relative="1" as="geometry">
            <mxPoint x="499" y="135" as="sourcePoint" />
            <mxPoint x="361" y="225" as="targetPoint" />
          </mxGeometry>
        </mxCell>
        <mxCell id="5rekBt8bQFxeiz0OV4fJ-18" style="rounded=0;orthogonalLoop=1;jettySize=auto;html=1;entryX=0;entryY=0.5;entryDx=0;entryDy=0;endArrow=none;startFill=0;" edge="1" parent="1" target="5rekBt8bQFxeiz0OV4fJ-1">
          <mxGeometry relative="1" as="geometry">
            <mxPoint x="175" y="248" as="sourcePoint" />
            <mxPoint x="350.99" y="231.024" as="targetPoint" />
          </mxGeometry>
        </mxCell>
        <mxCell id="5rekBt8bQFxeiz0OV4fJ-21" style="rounded=0;orthogonalLoop=1;jettySize=auto;html=1;endArrow=none;startFill=0;exitX=0.714;exitY=0.081;exitDx=0;exitDy=0;exitPerimeter=0;entryX=0;entryY=0.75;entryDx=0;entryDy=0;" edge="1" parent="1" target="5rekBt8bQFxeiz0OV4fJ-1">
          <mxGeometry relative="1" as="geometry">
            <mxPoint x="218.97800000000007" y="313.99699999999996" as="sourcePoint" />
            <mxPoint x="300" y="251" as="targetPoint" />
          </mxGeometry>
        </mxCell>
        <mxCell id="5rekBt8bQFxeiz0OV4fJ-22" style="rounded=0;orthogonalLoop=1;jettySize=auto;html=1;endArrow=none;startFill=0;entryX=0.5;entryY=1;entryDx=0;entryDy=0;" edge="1" parent="1" target="5rekBt8bQFxeiz0OV4fJ-1">
          <mxGeometry relative="1" as="geometry">
            <mxPoint x="326" y="324" as="sourcePoint" />
            <mxPoint x="348.04999999999995" y="272.99199999999996" as="targetPoint" />
          </mxGeometry>
        </mxCell>
        <mxCell id="5rekBt8bQFxeiz0OV4fJ-23" style="rounded=0;orthogonalLoop=1;jettySize=auto;html=1;endArrow=none;startFill=0;entryX=0.5;entryY=1;entryDx=0;entryDy=0;exitX=0.5;exitY=0;exitDx=0;exitDy=0;" edge="1" parent="1" source="5rekBt8bQFxeiz0OV4fJ-10" target="5rekBt8bQFxeiz0OV4fJ-1">
          <mxGeometry relative="1" as="geometry">
            <mxPoint x="336" y="334" as="sourcePoint" />
            <mxPoint x="366" y="278" as="targetPoint" />
          </mxGeometry>
        </mxCell>
        <mxCell id="5rekBt8bQFxeiz0OV4fJ-24" style="rounded=0;orthogonalLoop=1;jettySize=auto;html=1;endArrow=none;startFill=0;entryX=1;entryY=0.5;entryDx=0;entryDy=0;exitX=0;exitY=0.5;exitDx=0;exitDy=0;" edge="1" parent="1" source="5rekBt8bQFxeiz0OV4fJ-8" target="5rekBt8bQFxeiz0OV4fJ-1">
          <mxGeometry relative="1" as="geometry">
            <mxPoint x="481" y="325" as="sourcePoint" />
            <mxPoint x="366" y="278" as="targetPoint" />
          </mxGeometry>
        </mxCell>
      </root>
    </mxGraphModel>
  </diagram>
</mxfile>
